<svg xmlns="http://www.w3.org/2000/svg" width="24px" height="24px" viewBox="0 0 24 24"><g stroke="none" class="icon_svg-fill_as_stroke" fill="#666" fill-rule="nonzero"><path d="M20.269,0.927H3.731c-1.547,0-2.805,1.258-2.805,2.805v16.537c0,1.547,1.258,2.805,2.805,2.805h16.537 c1.547,0,2.805-1.258,2.805-2.805V3.731C23.073,2.185,21.815,0.927,20.269,0.927z M6.71,4.127c1.051,0,1.905,0.854,1.905,1.905 S7.761,7.938,6.71,7.938S4.805,7.083,4.805,6.032S5.659,4.127,6.71,4.127z M8.535,19.6H4.886V15.95h3.649V19.6z M8.384,13.449 H5.036c-0.271,0-0.44-0.293-0.304-0.527l1.674-2.9c0.135-0.234,0.474-0.234,0.609,0l1.674,2.9 C8.824,13.156,8.655,13.449,8.384,13.449z M19.456,19.155h-7.204c-0.331,0-0.6-0.269-0.6-0.6s0.269-0.6,0.6-0.6h7.204 c0.331,0,0.6,0.269,0.6,0.6S19.787,19.155,19.456,19.155z M19.456,14.892h-7.204c-0.331,0-0.6-0.269-0.6-0.6s0.269-0.6,0.6-0.6 h7.204c0.331,0,0.6,0.269,0.6,0.6S19.787,14.892,19.456,14.892z M19.456,10.627h-7.204c-0.331,0-0.6-0.269-0.6-0.6 s0.269-0.6,0.6-0.6h7.204c0.331,0,0.6,0.269,0.6,0.6S19.787,10.627,19.456,10.627z M19.456,6.363h-7.204 c-0.331,0-0.6-0.269-0.6-0.6s0.269-0.6,0.6-0.6h7.204c0.331,0,0.6,0.269,0.6,0.6S19.787,6.363,19.456,6.363z"/></g></svg>