<svg xmlns="http://www.w3.org/2000/svg" width="24px" height="24px" viewBox="0 0 24 24"><g stroke="none" class="icon_svg-fill_as_stroke" fill="#666" fill-rule="nonzero"><path d="M0.308058262,12.0580583 L0.245478344,12.130247 C-0.051901591,12.5286585 0.225938323,13.125 0.75,13.125 L3.875,13.125 L3.875,22.5 C3.875,22.845178 4.15482203,23.125 4.5,23.125 L9.5,23.125 C9.84517797,23.125 10.125,22.845178 10.125,22.5 L10.125,17.5 C10.125,16.4644661 10.9644661,15.625 12,15.625 C13.0355339,15.625 13.875,16.4644661 13.875,17.5 L13.875,22.5 C13.875,22.845178 14.154822,23.125 14.5,23.125 L19.5,23.125 L19.5923579,23.1182234 C19.8937421,23.0735831 20.125,22.8137982 20.125,22.5 L20.125,13.125 L23.25,13.125 C23.8068155,13.125 24.0856698,12.4517863 23.6919417,12.0580583 L12.4419417,0.808058262 C12.1978641,0.563980579 11.8021359,0.563980579 11.5580583,0.808058262 L0.308058262,12.0580583 Z M12,2.133 L21.742,11.875 L19.5,11.875 L19.4076421,11.8817766 C19.1062579,11.9264169 18.875,12.1862018 18.875,12.5 L18.875,21.875 L15.125,21.875 L15.125,17.5 C15.125,15.7741102 13.7258898,14.375 12,14.375 L11.8226693,14.3799469 C10.1792834,14.4718789 8.875,15.8336236 8.875,17.5 L8.875,21.875 L5.125,21.875 L5.125,12.5 L5.1182234,12.4076421 C5.07358314,12.1062579 4.81379815,11.875 4.5,11.875 L2.257,11.875 L12,2.133 Z"/></g></svg>