<svg xmlns="http://www.w3.org/2000/svg" viewBox="0 0 24 24"><path class="icon_svg-fill_as_stroke" d="M12 .4C5.604.4.4 5.604.4 12S5.604 23.6 12 23.6 23.6 18.396 23.6 12 18.396.4 12 .4zm.6 7.432c1.245-.038 2.429-.195 3.545-.47.403 1.122.672 2.466.731 4.039H12.6V7.832zm0-1.199V2.559c.839.591 2.121 1.743 3.07 3.682-.97.225-1.994.356-3.07.392zm-1.2 0c-1.076-.036-2.1-.167-3.069-.392.949-1.938 2.231-3.091 3.069-3.682v4.074zm0 1.199V11.4H7.124c.058-1.573.328-2.917.731-4.039a16.97 16.97 0 0 0 3.545.471zM5.926 11.4H1.63a10.33 10.33 0 0 1 2.149-5.746A13.55 13.55 0 0 0 6.704 7.03c-.432 1.226-.72 2.676-.778 4.37zm0 1.2c.058 1.694.347 3.145.778 4.37a13.6 13.6 0 0 0-2.925 1.376c-1.245-1.61-2.025-3.589-2.149-5.746h4.296zm1.198 0H11.4v3.569c-1.245.038-2.429.195-3.545.47-.403-1.123-.672-2.467-.731-4.039zm4.276 4.767v4.073c-.839-.591-2.121-1.743-3.07-3.682.97-.224 1.994-.355 3.07-.391zm1.2 0c1.076.035 2.101.166 3.07.391-.949 1.939-2.231 3.091-3.07 3.682v-4.073zm0-1.199V12.6h4.276c-.058 1.573-.328 2.917-.731 4.039a16.97 16.97 0 0 0-3.545-.471zm5.474-3.568h4.296a10.33 10.33 0 0 1-2.149 5.746 13.55 13.55 0 0 0-2.925-1.376c.432-1.226.72-2.676.778-4.37zm0-1.2c-.058-1.694-.347-3.145-.778-4.37a13.6 13.6 0 0 0 2.925-1.376A10.33 10.33 0 0 1 22.37 11.4h-4.296zm1.351-6.669c-.801.487-1.662.882-2.579 1.184-.999-2.14-2.38-3.463-3.372-4.199a10.37 10.37 0 0 1 5.951 3.015zm-8.898-3.015c-.992.736-2.374 2.059-3.373 4.199-.917-.302-1.778-.697-2.579-1.184a10.37 10.37 0 0 1 5.952-3.015zM4.575 19.269c.801-.487 1.662-.882 2.579-1.184.999 2.14 2.38 3.463 3.372 4.199a10.37 10.37 0 0 1-5.951-3.015zm8.898 3.015c.992-.736 2.374-2.058 3.372-4.199.918.302 1.778.697 2.579 1.184-1.562 1.597-3.635 2.684-5.951 3.015z"/></svg>