<svg xmlns="http://www.w3.org/2000/svg" width="24" height="24" viewBox="0 0 24 24"><path class="icon_svg-fill_as_stroke" d="M7.526 20.785H2.79c-.345 0-.625-.28-.625-.625v-2.87c0-.283.19-.53.463-.604.907-.244 1.672-.856 2.093-1.655.207-.456.349-1.126.426-1.944.079-.839.083-1.741.044-2.578l-.025-.44a6.84 6.84 0 0 1 4.402-6.386 2.54 2.54 0 0 1 4.133-2.658 2.54 2.54 0 0 1 .692 2.678c2.547.998 4.346 3.485 4.346 6.415l-.022.381a19.11 19.11 0 0 0 .046 2.585c.076.811.214 1.476.415 1.932.437.813 1.188 1.412 2.079 1.657.271.075.459.321.459.603v2.885c0 .345-.28.625-.625.625h-4.616a4.93 4.93 0 0 1-8.948 0zm1.432 0a3.68 3.68 0 0 0 6.084 0H8.958zm-1.155-1.25a.62.62 0 0 1 .273 0h7.847a.62.62 0 0 1 .273 0h4.269v-1.81c-1.027-.402-1.882-1.159-2.402-2.143l-.018-.037c-.272-.605-.439-1.399-.527-2.346-.085-.909-.091-1.868-.05-2.758l.022-.371c-.002-2.611-1.796-4.809-4.219-5.418-.421-.101-.851-.158-1.271-.167h-.089c-.436.015-.869.078-1.291.186-.04.01-.08.016-.12.019-2.358.657-4.083 2.813-4.087 5.331l.026.43c.042.89.037 1.847-.048 2.754-.089.945-.257 1.738-.548 2.377-.524.995-1.389 1.761-2.428 2.161v1.793h4.389zm2.969-16.189c.359-.066.727-.103 1.104-.111h.023.11c.402.006.796.048 1.178.121a1.29 1.29 0 0 0-2.078-1.409 1.29 1.29 0 0 0-.337 1.4z" fill="#666"/></svg>