<svg xmlns="http://www.w3.org/2000/svg" width="24" height="24" viewBox="0 0 24 24"><path class="icon_svg-fill_as_stroke" d="M12 11.375c2.276 0 4.125 1.823 4.125 4.076h0V22.5c0 .345-.28.625-.625.625h0-7c-.345 0-.625-.28-.625-.625h0v-7.049c0-2.253 1.849-4.076 4.125-4.076zm-7-2c1.376 0 2.638.671 3.403 1.771.197.283.127.673-.157.87s-.673.127-.87-.157c-.533-.767-1.413-1.235-2.376-1.235-1.533 0-2.783 1.178-2.87 2.66l-.005.166-.001 8.424h4.127c.314 0 .574.231.618.533l.007.092c0 .314-.231.574-.533.618l-.092.007H1.5c-.314 0-.574-.231-.618-.533L.875 22.5v-9.049c0-2.253 1.849-4.076 4.125-4.076zm14.001 0c2.276 0 4.125 1.823 4.125 4.076h0V22.5l-.007.092c-.045.301-.304.533-.618.533h0-4.751l-.092-.007c-.301-.045-.533-.304-.533-.618h0l.007-.092c.045-.301.304-.533.618-.533h0 4.126v-8.424l-.005-.166c-.087-1.482-1.337-2.66-2.87-2.66-.963 0-1.844.468-2.377 1.235-.197.284-.586.354-.87.157s-.354-.586-.157-.87c.764-1.101 2.027-1.772 3.403-1.772zM12 12.625c-1.59 0-2.875 1.267-2.875 2.826h0v6.424h5.75v-6.424c0-1.503-1.195-2.735-2.706-2.821h0zm0-10a3.86 3.86 0 0 1 2.641 1.039c.743.652 1.234 1.541 1.234 2.461h0v.625A3.89 3.89 0 0 1 12 10.375c-2.056 0-3.738-1.601-3.867-3.624l-.008-.001v-.625c0-.919.491-1.809 1.234-2.461.692-.645 1.621-1.039 2.641-1.039zm2.613 4.126H9.387C9.513 8.083 10.635 9.125 12 9.125s2.487-1.042 2.613-2.374zM19.192.625h.126.032 0l.082.003.073.004.048.003.111.011.033.004-.144-.015c1.626.128 2.998 1.259 3.432 2.831a3.87 3.87 0 0 1 .135 1.237l-.002 2.176.022.188.025.152.012.06.059.012c.376.096.655.549.392.947h0l-.056.074a2.34 2.34 0 0 1-.429.381c-.848.596-1.86.578-2.695-.443l-.042-.053a3.87 3.87 0 0 1-3.362-.512c-.284-.197-.355-.586-.158-.87s.586-.355.87-.158c.798.552 1.824.614 2.672.188.639-.453.834-1.328.415-2.046-.049-.097-.196-.263-.419-.458a7.85 7.85 0 0 0-.569-.448l-.819-.549h0l-.042-.027-1.875 1.237c-.277.183-.643.115-.839-.14h0l-.053-.082-.452-.823a.63.63 0 0 1-.108-.321v-.02c-.003-.096.015-.193.056-.282.511-1.115 1.499-1.889 2.632-2.157l.042-.009.151-.032.03-.005.353-.046.06-.004.147-.007zm-14.505 0h.093l.103.002.086.004.118.008.104.01.072.009.123.019.082.014.07.014.314.079.042.013a3.85 3.85 0 0 1 .666.275c.148.079.292.167.429.264a3.86 3.86 0 0 1 .649.578l.113.132c.102.125.195.254.28.39l.057.094.005.009a3.89 3.89 0 0 1 .186.359c.023.052.039.105.048.158.05.216.042.44-.018.634-.134.503-.531.948-1.088.948-.372 0-.678-.203-1.034-.56l-.354-.392h0l-.158-.198-.309.253c-.297.23-.612.446-.949.649h0l-.344.198c-.602.254-1.235.419-1.882.491a2.62 2.62 0 0 0 1.04 1.56c.901.639 2.106.647 3.014.018.284-.197.673-.126.87.158s.126.673-.158.87c-1.341.928-3.119.918-4.449-.026C1.384 6.862.784 5.543.886 4.205a3.86 3.86 0 0 1 .248-1.099l.026-.064.047-.112.04-.087.023-.049.036-.072.025-.048.057-.103.03-.052.064-.104.048-.074.062-.09.054-.074.056-.073.07-.087.054-.063.063-.071.068-.072.069-.07.069-.066.063-.058.097-.084.047-.039.086-.068.074-.056.091-.065.066-.044.099-.063.063-.038.103-.059.072-.038.087-.044.095-.045.089-.039.094-.039.072-.028.116-.041.062-.02.151-.045.2-.049-.189.046.18-.044.027-.006.152-.029.082-.013.113-.015.067-.007.09-.008.058-.004.048-.003.096-.004h0z" fill="#666"/></svg>